<svg width="32" height="33" viewBox="0 0 32 33" fill="none" xmlns="http://www.w3.org/2000/svg">
<g clip-path="url(#clip0_9_1314)">
<mask id="mask0_9_1314" style="mask-type:luminance" maskUnits="userSpaceOnUse" x="0" y="0" width="32" height="33">
<path d="M32 0H0V33H32V0Z" fill="white"/>
<path d="M16 11.88V2.59261C16 1.22146 14.1499 0.759403 13.4929 1.96648L5.34638 16.9344C4.68172 18.2507 5.64898 19.7998 7.13544 19.8H16V11.88Z" fill="black"/>
</mask>
<g mask="url(#mask0_9_1314)">
<path d="M16 19.8V30.4074C16 31.7786 17.8501 32.2406 18.5071 31.0336L26.6536 16.0656C27.3183 14.7493 26.3511 13.2003 24.8645 13.2H16V7.92004C12.6667 11.22 10.498 14.0408 10 19.8H16Z" fill="url(#paint0_linear_9_1314)"/>
</g>
<mask id="mask1_9_1314" style="mask-type:luminance" maskUnits="userSpaceOnUse" x="5" y="1" width="11" height="19">
<path d="M16 11.88V2.59261C16 1.22146 14.1499 0.759403 13.4929 1.96648L5.34638 16.9344C4.68172 18.2507 5.64898 19.7998 7.13544 19.8H16V11.88Z" fill="white"/>
</mask>
<g mask="url(#mask1_9_1314)">
<g filter="url(#filter0_f_9_1314)">
<path d="M16 19.8V30.4074C16 31.7786 17.8501 32.2406 18.5071 31.0336L26.6536 16.0656C27.3183 14.7493 26.3511 13.2003 24.8645 13.2H16V7.92004C12.6667 11.22 10.498 14.0408 10 19.8H16Z" fill="url(#paint1_linear_9_1314)"/>
</g>
</g>
<path d="M16 11.88V2.59261C16 1.22146 14.1499 0.759403 13.4929 1.96648L5.34638 16.9344C4.68172 18.2507 5.64898 19.7998 7.13544 19.8H16V11.88Z" fill="url(#paint2_linear_9_1314)"/>
<path d="M13.4935 1.96528C14.1508 0.759771 15.9993 1.22159 16 2.59176V15.8394H15V2.59176C14.9999 2.48133 14.9663 2.42032 14.9336 2.38165C14.8944 2.33546 14.8309 2.2927 14.7487 2.27207C14.6663 2.25153 14.5892 2.25881 14.5325 2.2811C14.4852 2.29981 14.4268 2.3384 14.3737 2.43579L7.07683 15.8394H5.94141L13.4935 1.96528Z" fill="url(#paint3_linear_9_1314)"/>
</g>
<defs>
<filter id="filter0_f_9_1314" x="6" y="3.92004" width="24.8672" height="31.8096" filterUnits="userSpaceOnUse" color-interpolation-filters="sRGB">
<feFlood flood-opacity="0" result="BackgroundImageFix"/>
<feBlend mode="normal" in="SourceGraphic" in2="BackgroundImageFix" result="shape"/>
<feGaussianBlur stdDeviation="2" result="effect1_foregroundBlur_9_1314"/>
</filter>
<linearGradient id="paint0_linear_9_1314" x1="18.4333" y1="7.92004" x2="18.4333" y2="35.64" gradientUnits="userSpaceOnUse">
<stop stop-color="#0D9488"/>
<stop offset="1" stop-color="#0D9488"/>
</linearGradient>
<linearGradient id="paint1_linear_9_1314" x1="18.4333" y1="7.92004" x2="18.4333" y2="35.64" gradientUnits="userSpaceOnUse">
<stop stop-color="#0D9488"/>
<stop offset="1" stop-color="#0D9488"/>
</linearGradient>
<linearGradient id="paint2_linear_9_1314" x1="10.5667" y1="-2.63997" x2="10.5667" y2="19.8" gradientUnits="userSpaceOnUse">
<stop stop-color="#E3E3E5" stop-opacity="0.6"/>
<stop offset="1" stop-color="#BBBBC0" stop-opacity="0.6"/>
</linearGradient>
<linearGradient id="paint3_linear_9_1314" x1="10.9707" y1="1.2711" x2="10.9707" y2="14.5199" gradientUnits="userSpaceOnUse">
<stop stop-color="white"/>
<stop offset="1" stop-color="white" stop-opacity="0"/>
</linearGradient>
<clipPath id="clip0_9_1314">
<rect width="32" height="33" fill="white"/>
</clipPath>
</defs>
</svg>
