<svg width="50" height="50" viewBox="0 0 50 50" fill="none" xmlns="http://www.w3.org/2000/svg">
<rect width="50" height="50" rx="12" fill="white"/>
<g clip-path="url(#clip0_39_967)">
<mask id="mask0_39_967" style="mask-type:luminance" maskUnits="userSpaceOnUse" x="9" y="9" width="32" height="32">
<path d="M41 9H9V41H41V9Z" fill="white"/>
<path d="M17.6667 22.1327C17.6667 20.7506 17.6667 20.0595 17.8716 19.4443C18.0528 18.9 18.349 18.4011 18.74 17.9814C19.1821 17.5069 19.7887 17.176 21.0021 16.5142L26.0237 13.7751C28.1019 12.6415 29.141 12.0747 29.9905 12.1786C30.7317 12.2693 31.401 12.6666 31.8354 13.2739C32.3334 13.9698 32.3334 15.1535 32.3334 17.5208V27.8676C32.3334 29.2497 32.3334 29.9407 32.1285 30.556C31.9473 31.1003 31.6511 31.5992 31.2601 32.0188C30.8181 32.4933 30.2114 32.8243 28.9981 33.4861L23.9765 36.2251C21.8982 37.3587 20.8591 37.9255 20.0097 37.8216C19.2685 37.7309 18.5992 37.3337 18.1647 36.7264C17.6667 36.0304 17.6667 34.8468 17.6667 32.4795V22.1327Z" fill="black"/>
</mask>
<g mask="url(#mask0_39_967)">
<path d="M10.3333 20.1327C10.3333 18.7506 10.3333 18.0595 10.5381 17.4443C10.7193 16.9 11.0155 16.4011 11.4065 15.9814C11.8486 15.5069 12.4552 15.176 13.6686 14.5142L18.6901 11.7751C20.7684 10.6415 21.8076 10.0747 22.657 10.1786C23.3982 10.2693 24.0675 10.6666 24.5019 11.2739C24.9999 11.9698 24.9999 13.1535 24.9999 15.5208V25.8676C24.9999 27.2497 24.9999 27.9407 24.795 28.556C24.6138 29.1003 24.3177 29.5992 23.9266 30.0188C23.4846 30.4933 22.8779 30.8243 21.6646 31.4861L16.643 34.2251C14.5647 35.3587 13.5256 35.9255 12.6762 35.8216C11.935 35.7309 11.2657 35.3337 10.8312 34.7264C10.3333 34.0304 10.3333 32.8468 10.3333 30.4795V20.1327Z" fill="url(#paint0_linear_39_967)"/>
</g>
<mask id="mask1_39_967" style="mask-type:luminance" maskUnits="userSpaceOnUse" x="17" y="12" width="16" height="26">
<path d="M17.6667 22.1327C17.6667 20.7506 17.6667 20.0595 17.8716 19.4443C18.0528 18.9 18.349 18.4011 18.74 17.9814C19.1821 17.5069 19.7887 17.176 21.0021 16.5142L26.0237 13.7751C28.1019 12.6415 29.141 12.0747 29.9905 12.1786C30.7317 12.2693 31.401 12.6666 31.8354 13.2739C32.3334 13.9698 32.3334 15.1535 32.3334 17.5208V27.8676C32.3334 29.2497 32.3334 29.9407 32.1285 30.556C31.9473 31.1003 31.6511 31.5992 31.2601 32.0188C30.8181 32.4933 30.2114 32.8243 28.9981 33.4861L23.9765 36.2251C21.8982 37.3587 20.8591 37.9255 20.0097 37.8216C19.2685 37.7309 18.5992 37.3337 18.1647 36.7264C17.6667 36.0304 17.6667 34.8468 17.6667 32.4795V22.1327Z" fill="white"/>
</mask>
<g mask="url(#mask1_39_967)">
<g filter="url(#filter0_f_39_967)">
<path d="M10.3335 20.1327C10.3335 18.7506 10.3335 18.0595 10.5384 17.4443C10.7196 16.9 11.0158 16.4011 11.4068 15.9814C11.8488 15.5069 12.4555 15.176 13.6688 14.5142L18.6904 11.7751C20.7687 10.6415 21.8078 10.0747 22.6572 10.1786C23.3984 10.2693 24.0678 10.6666 24.5022 11.2739C25.0002 11.9698 25.0002 13.1535 25.0002 15.5208V25.8676C25.0002 27.2497 25.0002 27.9407 24.7952 28.556C24.614 29.1003 24.3179 29.5992 23.9268 30.0188C23.4848 30.4933 22.8782 30.8243 21.6648 31.4861L16.6433 34.2251C14.565 35.3587 13.5259 35.9255 12.6764 35.8216C11.9352 35.7309 11.266 35.3337 10.8314 34.7264C10.3335 34.0304 10.3335 32.8468 10.3335 30.4795V20.1327Z" fill="url(#paint1_linear_39_967)"/>
</g>
</g>
<path d="M17.6667 22.1327C17.6667 20.7506 17.6667 20.0595 17.8716 19.4443C18.0528 18.9 18.349 18.4011 18.74 17.9814C19.1821 17.5069 19.7887 17.176 21.0021 16.5142L26.0237 13.7751C28.1019 12.6415 29.141 12.0747 29.9905 12.1786C30.7317 12.2693 31.401 12.6666 31.8354 13.2739C32.3334 13.9698 32.3334 15.1535 32.3334 17.5208V27.8676C32.3334 29.2497 32.3334 29.9407 32.1285 30.556C31.9473 31.1003 31.6511 31.5992 31.2601 32.0188C30.8181 32.4933 30.2114 32.8243 28.9981 33.4861L23.9765 36.2251C21.8982 37.3587 20.8591 37.9255 20.0097 37.8216C19.2685 37.7309 18.5992 37.3337 18.1647 36.7264C17.6667 36.0304 17.6667 34.8468 17.6667 32.4795V22.1327Z" fill="url(#paint2_linear_39_967)"/>
<path d="M29.991 12.1779C30.7319 12.2686 31.4015 12.6659 31.8361 13.2729C32.3339 13.9689 32.3334 15.1533 32.3334 17.5203V27.8667C32.3334 29.2486 32.3337 29.9403 32.129 30.5555L32.0547 30.7574C31.8714 31.2228 31.6023 31.6507 31.2605 32.0178L31.0861 32.1908C30.7933 32.4574 30.4206 32.6923 29.8763 32.9995H27.8009L28.5195 32.6075C29.7935 31.9127 30.2235 31.6643 30.5287 31.3367C30.8218 31.022 31.0439 30.6471 31.1798 30.2391C31.321 29.8144 31.3334 29.3175 31.3334 27.8667V17.5203C31.3334 16.3173 31.3318 15.4837 31.2749 14.8615C31.2174 14.2358 31.1138 13.983 31.0222 13.855C30.7506 13.4756 30.3317 13.2267 29.8686 13.1701C29.7122 13.1511 29.4407 13.1815 28.8646 13.4305C28.2911 13.6784 27.5587 14.0758 26.5027 14.6518L21.4805 17.3914C20.2067 18.0863 19.7766 18.3348 19.4714 18.6623C19.1783 18.977 18.9563 19.3519 18.8204 19.7599C18.679 20.1847 18.6667 20.6814 18.6667 22.1323V32.4787C18.6667 32.7328 18.6687 32.9708 18.6693 33.1935C18.2839 33.3491 17.9447 33.5932 17.6733 33.8992C17.6677 33.4799 17.6667 33.0088 17.6667 32.4787V22.1323C17.6667 20.7505 17.6663 20.0587 17.8712 19.4435C18.0298 18.9674 18.2766 18.5255 18.5977 18.1414L18.7397 17.9813C19.0712 17.6255 19.496 17.3498 20.1993 16.9552L21.0027 16.5138L26.0235 13.7742C28.1017 12.6407 29.1415 12.074 29.991 12.1779Z" fill="url(#paint3_linear_39_967)"/>
<path d="M25 24.1326C25 22.7505 25 22.0595 25.2049 21.4443C25.3861 20.9 25.6823 20.4011 26.0733 19.9814C26.5153 19.5069 27.122 19.176 28.3353 18.5142L33.3569 15.7751C35.4352 14.6415 36.4743 14.0747 37.3237 14.1786C38.0649 14.2693 38.7343 14.6666 39.1687 15.2739C39.6667 15.9698 39.6667 17.1535 39.6667 19.5208V29.8676C39.6667 31.2497 39.6667 31.9407 39.4617 32.556C39.2805 33.1003 38.9844 33.5992 38.5933 34.0188C38.1513 34.4933 37.5447 34.8243 36.3313 35.4861L31.3097 38.2251C29.2315 39.3587 28.1924 39.9255 27.3429 39.8216C26.6017 39.7309 25.9324 39.3337 25.498 38.7264C25 38.0304 25 36.8468 25 34.4795V24.1326Z" fill="url(#paint4_linear_39_967)"/>
</g>
<defs>
<filter id="filter0_f_39_967" x="6.3335" y="6.1665" width="22.6667" height="33.6672" filterUnits="userSpaceOnUse" color-interpolation-filters="sRGB">
<feFlood flood-opacity="0" result="BackgroundImageFix"/>
<feBlend mode="normal" in="SourceGraphic" in2="BackgroundImageFix" result="shape"/>
<feGaussianBlur stdDeviation="2" result="effect1_foregroundBlur_39_967"/>
</filter>
<linearGradient id="paint0_linear_39_967" x1="17.6666" y1="8.33345" x2="17.6666" y2="37.6668" gradientUnits="userSpaceOnUse">
<stop stop-color="#0D9488"/>
<stop offset="1" stop-color="#0D9488"/>
</linearGradient>
<linearGradient id="paint1_linear_39_967" x1="17.6668" y1="8.33345" x2="17.6668" y2="37.6668" gradientUnits="userSpaceOnUse">
<stop stop-color="#0D9488"/>
<stop offset="1" stop-color="#0D9488"/>
</linearGradient>
<linearGradient id="paint2_linear_39_967" x1="25.0001" y1="10.3334" x2="25.0001" y2="39.6668" gradientUnits="userSpaceOnUse">
<stop stop-color="#E3E3E5" stop-opacity="0.6"/>
<stop offset="1" stop-color="#BBBBC0" stop-opacity="0.6"/>
</linearGradient>
<linearGradient id="paint3_linear_39_967" x1="25.0001" y1="12.1666" x2="25.0001" y2="32.3332" gradientUnits="userSpaceOnUse">
<stop stop-color="white"/>
<stop offset="1" stop-color="white" stop-opacity="0"/>
</linearGradient>
<linearGradient id="paint4_linear_39_967" x1="32.3333" y1="12.3334" x2="32.3333" y2="41.6668" gradientUnits="userSpaceOnUse">
<stop stop-color="#0D9488"/>
<stop offset="1" stop-color="#0D9488"/>
</linearGradient>
<clipPath id="clip0_39_967">
<rect width="32" height="32" fill="white" transform="translate(9 9)"/>
</clipPath>
</defs>
</svg>
