<svg width="32" height="32" viewBox="0 0 32 32" fill="none" xmlns="http://www.w3.org/2000/svg">
<g clip-path="url(#clip0_9_1284)">
<mask id="mask0_9_1284" style="mask-type:luminance" maskUnits="userSpaceOnUse" x="0" y="0" width="32" height="32">
<path d="M32 0H0V32H32V0Z" fill="white"/>
<path d="M8.66675 13.1326C8.66675 11.7505 8.66675 11.0594 8.87161 10.4441C9.05284 9.89989 9.34901 9.40098 9.74003 8.98126C10.1821 8.50679 10.7887 8.17587 12.0021 7.51405L17.0237 4.77502C19.1019 3.64142 20.141 3.07461 20.9905 3.1785C21.7317 3.26915 22.401 3.66643 22.8354 4.27375C23.3334 4.9697 23.3334 6.15337 23.3334 8.5207V18.8675C23.3334 20.2496 23.3334 20.9405 23.1285 21.5559C22.9473 22.1001 22.6511 22.5991 22.2601 23.0187C21.8181 23.4932 21.2114 23.8241 19.9981 24.486L14.9765 27.2249C12.8982 28.3585 11.8591 28.9253 11.0097 28.8215C10.2685 28.7308 9.59921 28.3336 9.16469 27.7263C8.66675 27.0303 8.66675 25.8467 8.66675 23.4793V13.1326Z" fill="black"/>
</mask>
<g mask="url(#mask0_9_1284)">
<path d="M1.33325 11.1326C1.33325 9.75046 1.33325 9.0594 1.53812 8.44414C1.71935 7.89989 2.01552 7.40098 2.40653 6.98126C2.84856 6.5068 3.45524 6.17588 4.6686 5.51405L9.69015 2.77502C11.7684 1.64142 12.8076 1.07462 13.657 1.1785C14.3982 1.26915 15.0675 1.66644 15.5019 2.27376C15.9999 2.9697 15.9999 4.15337 15.9999 6.5207V16.8675C15.9999 18.2496 15.9999 18.9405 15.795 19.5559C15.6138 20.1001 15.3177 20.5991 14.9266 21.0187C14.4846 21.4932 13.8779 21.8241 12.6646 22.486L7.64303 25.2249C5.56475 26.3585 4.52561 26.9253 3.6762 26.8215C2.93497 26.7308 2.26572 26.3336 1.8312 25.7263C1.33325 25.0303 1.33325 23.8467 1.33325 21.4793V11.1326Z" fill="url(#paint0_linear_9_1284)"/>
</g>
<mask id="mask1_9_1284" style="mask-type:luminance" maskUnits="userSpaceOnUse" x="8" y="3" width="16" height="26">
<path d="M8.66675 13.1326C8.66675 11.7505 8.66675 11.0594 8.87161 10.4441C9.05284 9.89989 9.34901 9.40098 9.74003 8.98126C10.1821 8.50679 10.7887 8.17587 12.0021 7.51405L17.0237 4.77502C19.1019 3.64142 20.141 3.07461 20.9905 3.1785C21.7317 3.26915 22.401 3.66643 22.8354 4.27375C23.3334 4.9697 23.3334 6.15337 23.3334 8.5207V18.8675C23.3334 20.2496 23.3334 20.9405 23.1285 21.5559C22.9473 22.1001 22.6511 22.5991 22.2601 23.0187C21.8181 23.4932 21.2114 23.8241 19.9981 24.486L14.9765 27.2249C12.8982 28.3585 11.8591 28.9253 11.0097 28.8215C10.2685 28.7308 9.59921 28.3336 9.16469 27.7263C8.66675 27.0303 8.66675 25.8467 8.66675 23.4793V13.1326Z" fill="white"/>
</mask>
<g mask="url(#mask1_9_1284)">
<g filter="url(#filter0_f_9_1284)">
<path d="M1.3335 11.1326C1.3335 9.75046 1.3335 9.0594 1.53836 8.44414C1.71959 7.89989 2.01576 7.40098 2.40678 6.98126C2.8488 6.5068 3.45548 6.17588 4.66884 5.51405L9.69039 2.77502C11.7687 1.64142 12.8078 1.07462 13.6572 1.1785C14.3984 1.26915 15.0678 1.66644 15.5022 2.27376C16.0002 2.9697 16.0002 4.15337 16.0002 6.5207V16.8675C16.0002 18.2496 16.0002 18.9405 15.7952 19.5559C15.614 20.1001 15.3179 20.5991 14.9268 21.0187C14.4848 21.4932 13.8782 21.8241 12.6648 22.486L7.64327 25.2249C5.56499 26.3585 4.52586 26.9253 3.67644 26.8215C2.93522 26.7308 2.26596 26.3336 1.83144 25.7263C1.3335 25.0303 1.3335 23.8467 1.3335 21.4793V11.1326Z" fill="url(#paint1_linear_9_1284)"/>
</g>
</g>
<path d="M8.66675 13.1326C8.66675 11.7505 8.66675 11.0594 8.87161 10.4441C9.05284 9.89989 9.34901 9.40098 9.74003 8.98126C10.1821 8.50679 10.7887 8.17587 12.0021 7.51405L17.0237 4.77502C19.1019 3.64142 20.141 3.07461 20.9905 3.1785C21.7317 3.26915 22.401 3.66643 22.8354 4.27375C23.3334 4.9697 23.3334 6.15337 23.3334 8.5207V18.8675C23.3334 20.2496 23.3334 20.9405 23.1285 21.5559C22.9473 22.1001 22.6511 22.5991 22.2601 23.0187C21.8181 23.4932 21.2114 23.8241 19.9981 24.486L14.9765 27.2249C12.8982 28.3585 11.8591 28.9253 11.0097 28.8215C10.2685 28.7308 9.59921 28.3336 9.16469 27.7263C8.66675 27.0303 8.66675 25.8467 8.66675 23.4793V13.1326Z" fill="url(#paint2_linear_9_1284)"/>
<path d="M20.991 3.17801C21.7319 3.26877 22.4015 3.66603 22.8361 4.27306C23.334 4.96898 23.3334 6.15343 23.3334 8.52046V18.8668C23.3334 20.2487 23.3337 20.9404 23.129 21.5556L23.0547 21.7575C22.8714 22.223 22.6023 22.6508 22.2605 23.0179L22.0861 23.191C21.7933 23.4575 21.4206 23.6924 20.8763 23.9996H18.8009L19.5195 23.6076C20.7935 22.9128 21.2235 22.6644 21.5287 22.3368C21.8218 22.0222 22.0439 21.6472 22.1798 21.2392C22.321 20.8146 22.3334 20.3176 22.3334 18.8668V8.52046C22.3334 7.31746 22.3318 6.48386 22.2749 5.86161C22.2174 5.23597 22.1138 4.98309 22.0222 4.8551C21.7506 4.47573 21.3317 4.22683 20.8686 4.17019C20.7122 4.15125 20.4407 4.18165 19.8646 4.43062C19.2911 4.67849 18.5587 5.07594 17.5027 5.65197L12.4805 8.39155C11.2067 9.08638 10.7766 9.33489 10.4714 9.66239C10.1783 9.97707 9.95632 10.352 9.82039 10.76C9.67904 11.1848 9.66675 11.6815 9.66675 13.1324V23.4788C9.66675 23.733 9.66871 23.971 9.66935 24.1936C9.28387 24.3492 8.94473 24.5934 8.67325 24.8994C8.66771 24.48 8.66675 24.009 8.66675 23.4788V13.1324C8.66675 11.7506 8.66633 11.0588 8.87117 10.4436C9.02977 9.96749 9.27664 9.52561 9.59773 9.14155L9.73967 8.98139C10.0712 8.62559 10.496 8.3499 11.1993 7.95535L12.0027 7.51395L17.0235 4.77437C19.1017 3.64085 20.1415 3.07415 20.991 3.17801Z" fill="url(#paint3_linear_9_1284)"/>
<path d="M16 15.1325C16 13.7504 16 13.0594 16.2049 12.4441C16.3861 11.8999 16.6823 11.401 17.0733 10.9813C17.5153 10.5068 18.122 10.1759 19.3353 9.51405L24.3569 6.77502C26.4352 5.64142 27.4743 5.07461 28.3237 5.1785C29.0649 5.26915 29.7343 5.66643 30.1687 6.27375C30.6667 6.9697 30.6667 8.15337 30.6667 10.5207V20.8675C30.6667 22.2496 30.6667 22.9405 30.4617 23.5559C30.2805 24.1001 29.9844 24.5991 29.5933 25.0187C29.1513 25.4932 28.5447 25.8241 27.3313 26.486L22.3097 29.2249C20.2315 30.3585 19.1924 30.9253 18.3429 30.8215C17.6017 30.7308 16.9324 30.3336 16.498 29.7263C16 29.0303 16 27.8467 16 25.4793V15.1325Z" fill="url(#paint4_linear_9_1284)"/>
</g>
<defs>
<filter id="filter0_f_9_1284" x="-2.6665" y="-2.83362" width="22.6667" height="33.6672" filterUnits="userSpaceOnUse" color-interpolation-filters="sRGB">
<feFlood flood-opacity="0" result="BackgroundImageFix"/>
<feBlend mode="normal" in="SourceGraphic" in2="BackgroundImageFix" result="shape"/>
<feGaussianBlur stdDeviation="2" result="effect1_foregroundBlur_9_1284"/>
</filter>
<linearGradient id="paint0_linear_9_1284" x1="8.66659" y1="-0.66667" x2="8.66659" y2="28.6667" gradientUnits="userSpaceOnUse">
<stop stop-color="#0D9488"/>
<stop offset="1" stop-color="#0D9488"/>
</linearGradient>
<linearGradient id="paint1_linear_9_1284" x1="8.66683" y1="-0.66667" x2="8.66683" y2="28.6667" gradientUnits="userSpaceOnUse">
<stop stop-color="#0D9488"/>
<stop offset="1" stop-color="#0D9488"/>
</linearGradient>
<linearGradient id="paint2_linear_9_1284" x1="16.0001" y1="1.33333" x2="16.0001" y2="30.6667" gradientUnits="userSpaceOnUse">
<stop stop-color="#E3E3E5" stop-opacity="0.6"/>
<stop offset="1" stop-color="#BBBBC0" stop-opacity="0.6"/>
</linearGradient>
<linearGradient id="paint3_linear_9_1284" x1="16.0001" y1="3.1667" x2="16.0001" y2="23.3334" gradientUnits="userSpaceOnUse">
<stop stop-color="white"/>
<stop offset="1" stop-color="white" stop-opacity="0"/>
</linearGradient>
<linearGradient id="paint4_linear_9_1284" x1="23.3333" y1="3.33333" x2="23.3333" y2="32.6667" gradientUnits="userSpaceOnUse">
<stop stop-color="#0D9488"/>
<stop offset="1" stop-color="#0D9488"/>
</linearGradient>
<clipPath id="clip0_9_1284">
<rect width="32" height="32" fill="white"/>
</clipPath>
</defs>
</svg>
