<svg width="24" height="24" viewBox="0 0 24 24" fill="none" xmlns="http://www.w3.org/2000/svg">
<path d="M11.1799 1.25C11.7468 1.24999 12.0667 1.2496 12.342 1.26855C16.3034 1.54134 19.4558 4.66956 19.7307 8.59961C19.7498 8.87283 19.7503 9.19031 19.7502 9.75293V9.82031C19.7503 10.3829 19.7498 10.7004 19.7307 10.9736C19.4557 14.9037 16.3034 18.0319 12.342 18.3047C12.0667 18.3236 11.7468 18.3232 11.1799 18.3232H9.82056C9.25369 18.3232 8.93378 18.3236 8.65845 18.3047C7.60766 18.2323 6.61241 17.958 5.71313 17.5215L1.4436 18.75L2.56567 14.7764C1.83055 13.6725 1.36772 12.3734 1.26978 10.9736C1.25066 10.7004 1.25024 10.3829 1.25024 9.82031V9.75293C1.25024 9.19031 1.25066 8.87283 1.26978 8.59961C1.54474 4.66956 4.69706 1.54134 8.65845 1.26855C8.93378 1.2496 9.25369 1.24999 9.82056 1.25H11.1799ZM6.50024 12.75H14.5002V11.25H6.50024V12.75ZM6.50024 8.75H11.5002V7.25H6.50024V8.75Z" fill="black"/>
<path d="M5.61523 18.8504C6.94839 20.8037 9.13968 22.1306 11.6577 22.304C11.9331 22.323 12.2531 22.323 12.8202 22.323H14.1789C14.746 22.323 15.066 22.323 15.3414 22.304C16.3922 22.2316 17.387 21.9581 18.2862 21.5216L22.5561 22.7498L21.4337 18.7764C22.169 17.6724 22.6325 16.3733 22.7305 14.9734C22.7496 14.7002 22.7496 14.3827 22.7496 13.8201V13.7526C22.7496 13.19 22.7496 12.8726 22.7305 12.5993C22.6122 10.9091 21.9617 9.36734 20.9435 8.13721C20.9573 8.26142 20.9686 8.38641 20.9774 8.51211C20.9996 8.82945 20.9996 9.1865 20.9996 9.70349V9.86926C20.9996 10.3862 20.9996 10.7433 20.9774 11.0606C20.6584 15.6203 17.0033 19.2359 12.4273 19.5511C12.1084 19.573 11.7495 19.573 11.2275 19.573H9.77167C9.24966 19.573 8.8907 19.573 8.57186 19.5511C7.531 19.4794 6.53612 19.2365 5.61707 18.8499L5.61523 18.8504Z" fill="black"/>
</svg>
