<svg width="24" height="24" viewBox="0 0 24 24" fill="none" xmlns="http://www.w3.org/2000/svg">
<path d="M11.999 16C13.31 16 14.3463 17.1123 14.2529 18.4199L14.252 18.4277L14.0117 22.748C13.7473 22.7487 13.4727 22.75 13.1885 22.75H10.8115C10.5265 22.75 10.2514 22.7487 9.98633 22.748L9.74707 18.4277L9.74609 18.4199C9.6527 17.1124 10.6882 16.0001 11.999 16ZM12 1.25C12.8661 1.25 13.6407 1.52703 14.4766 1.99609C15.2863 2.45052 16.2142 3.1213 17.3809 3.96484L18.8906 5.05664C19.8268 5.73348 20.5746 6.27401 21.1387 6.77441C21.7212 7.29125 22.1571 7.80699 22.4336 8.45508C22.7106 9.10463 22.7774 9.77046 22.7402 10.5381C22.7044 11.2789 22.5678 12.1727 22.3965 13.2871L22.0811 15.3389C21.8377 16.9225 21.644 18.1836 21.3594 19.166C21.065 20.182 20.6495 20.9889 19.9082 21.6055C19.1701 22.2192 18.2908 22.4926 17.2168 22.623C16.8512 22.6674 16.4522 22.6951 16.0166 22.7139L16.248 18.5537C16.419 16.0921 14.4678 14 11.999 14C9.53039 14.0001 7.58004 16.0922 7.75098 18.5537L7.98145 22.7139C7.54662 22.6951 7.14822 22.6674 6.7832 22.623C5.70921 22.4926 4.8299 22.2192 4.0918 21.6055C3.35055 20.9889 2.93502 20.182 2.64062 19.166C2.35597 18.1836 2.16229 16.9225 1.91895 15.3389L1.60352 13.2871C1.43224 12.1727 1.29563 11.2788 1.25977 10.5381C1.2226 9.77046 1.28936 9.10463 1.56641 8.45508C1.84285 7.80697 2.27881 7.29126 2.86133 6.77441C3.42548 6.27392 4.17399 5.73365 5.11035 5.05664L6.61914 3.96484C7.78579 3.1213 8.7137 2.45054 9.52344 1.99609C10.3593 1.52704 11.134 1.25001 12 1.25Z" fill="black"/>
</svg>
