<svg width="24" height="24" viewBox="0 0 24 24" fill="none" xmlns="http://www.w3.org/2000/svg">
<path d="M9.08032 2.78662C11.0332 2.73757 12.9673 2.73755 14.9202 2.78662L14.9778 2.78857C16.5026 2.82686 17.7298 2.85756 18.7131 3.02881C19.7426 3.2081 20.5795 3.55168 21.2864 4.26123C21.9902 4.96777 22.3322 5.79245 22.5081 6.80518C22.6755 7.76955 22.7011 8.96686 22.7327 10.4497L22.7336 10.5083C22.7549 11.5046 22.7549 12.4954 22.7336 13.4917L22.7327 13.5503C22.7011 15.0331 22.6755 16.2305 22.5081 17.1948C22.3322 18.2075 21.9902 19.0323 21.2864 19.7388C20.5795 20.4483 19.7426 20.7919 18.7131 20.9712C17.7298 21.1424 16.5026 21.1731 14.9778 21.2114L14.9202 21.2134C12.9673 21.2624 11.0332 21.2624 9.08032 21.2134L9.02173 21.2114C7.49693 21.1731 6.26969 21.1424 5.28638 20.9712C4.25697 20.7919 3.41995 20.4483 2.71313 19.7388C2.00935 19.0323 1.66735 18.2075 1.49146 17.1948C1.32399 16.2305 1.29844 15.0331 1.26685 13.5503L1.26587 13.4917C1.24462 12.4954 1.24462 11.5046 1.26587 10.5083L1.26685 10.4497C1.29844 8.96686 1.32399 7.76955 1.49146 6.80518C1.66732 5.79249 2.00938 4.96775 2.71313 4.26123C3.41994 3.55173 4.25699 3.20811 5.28638 3.02881C6.2697 2.85756 7.4969 2.82686 9.02173 2.78857L9.08032 2.78662ZM17.6458 8.11865C17.435 7.76218 16.9749 7.6434 16.6184 7.854L13.676 9.59424C12.8321 10.0932 12.3831 10.2494 12.0002 10.2495C11.6172 10.2495 11.1678 10.0934 10.3235 9.59424L7.38208 7.854C7.02552 7.64319 6.56555 7.7621 6.35474 8.11865C6.14403 8.47519 6.26189 8.93521 6.61841 9.146L9.56079 10.8853C10.4314 11.4 11.183 11.7495 12.0002 11.7495C12.8175 11.7494 13.569 11.4001 14.4397 10.8853L17.3821 9.146C17.7384 8.93523 17.8563 8.47513 17.6458 8.11865Z" fill="black"/>
</svg>
