<svg width="24" height="24" viewBox="0 0 24 24" fill="none" xmlns="http://www.w3.org/2000/svg">
<path fill-rule="evenodd" clip-rule="evenodd" d="M6.4247 5.96668C6.58139 6.49628 6.27908 7.05261 5.74949 7.2093C4.16178 7.67903 3.67116 7.99976 3.42994 8.41522C3.27579 8.68071 3.19906 9.03052 3.28685 9.7228C3.37837 10.4445 3.62421 11.3755 3.98943 12.7463L5.00179 16.546C5.36703 17.9169 5.61699 18.8467 5.89648 19.5177C6.16466 20.1614 6.40442 20.4241 6.66765 20.5752C6.93172 20.7268 7.28257 20.8023 7.97966 20.711C8.70491 20.6161 9.64085 20.3661 11.017 19.9953L11.4897 19.8679C12.023 19.7242 12.5718 20.04 12.7155 20.5733C12.8592 21.1065 12.5434 21.6553 12.0101 21.799L11.4696 21.9446C10.1784 22.2926 9.11286 22.5798 8.23925 22.6941C7.32225 22.8142 6.46836 22.767 5.6719 22.3097C4.87461 21.852 4.40515 21.1386 4.05028 20.2868C3.71269 19.4764 3.42979 18.4145 3.08741 17.1293L2.03867 13.193C1.6962 11.9077 1.41325 10.8459 1.30274 9.97441C1.18654 9.05817 1.23873 8.20602 1.70034 7.41099C2.38635 6.22945 3.65428 5.74348 5.18209 5.29147C5.71168 5.13479 6.26802 5.43709 6.4247 5.96668Z" fill="#6A6770"/>
<path d="M10.5824 1.66052C11.3125 1.24143 12.1032 1.18808 12.9935 1.30212C13.8513 1.41203 14.9041 1.69263 16.2094 2.04041L17.2689 2.32263C18.5741 2.67035 19.627 2.95129 20.4252 3.28259C21.2537 3.6265 21.9137 4.06555 22.3363 4.79333C22.7593 5.52177 22.8126 6.31145 22.6976 7.19861C22.587 8.05231 22.304 9.09966 21.9545 10.3969L20.9027 14.3002C20.5532 15.5973 20.2713 16.6447 19.9379 17.4388C19.5914 18.2641 19.1488 18.9197 18.4183 19.3392C17.6881 19.7585 16.8967 19.8117 16.0062 19.6976C15.1485 19.5877 14.0956 19.3071 12.7904 18.9594L11.7308 18.6771C10.4257 18.3294 9.37274 18.0494 8.57458 17.7181C7.74602 17.3742 7.08606 16.9343 6.66345 16.2064C6.24059 15.478 6.18814 14.6883 6.3031 13.8011C6.41376 12.9475 6.69575 11.9 7.04529 10.6029L8.09705 6.70056C8.44654 5.40349 8.72853 4.3561 9.06189 3.56189C9.40846 2.73633 9.8515 2.08013 10.5824 1.66052ZM12.0511 10.0883C11.6509 9.98163 11.2399 10.2193 11.1332 10.6195C11.0265 11.0197 11.2642 11.4308 11.6644 11.5375L14.0511 12.1732C14.4513 12.2797 14.8624 12.042 14.9691 11.642C15.0758 11.2417 14.8371 10.8306 14.4369 10.724L12.0511 10.0883ZM13.0736 6.29138C12.6734 6.18485 12.2623 6.42247 12.1556 6.82263C12.049 7.22288 12.2876 7.63396 12.6879 7.7406L17.4603 9.01208C17.8605 9.11871 18.2716 8.88098 18.3783 8.48083C18.4849 8.08068 18.2471 7.66963 17.847 7.56287L13.0736 6.29138Z" fill="#6A6770"/>
</svg>
