<svg width="24" height="24" viewBox="0 0 24 24" fill="none" xmlns="http://www.w3.org/2000/svg">
<path d="M10.3623 2.01465C11.4265 1.66149 12.5735 1.66149 13.6377 2.01465C14.6977 2.36651 15.5301 3.20154 16.3662 4.37402C17.1996 5.54266 18.1206 7.17208 19.3076 9.27246L19.3545 9.35449C20.5416 11.4551 21.4623 13.0849 22.0361 14.4062C22.6128 15.7341 22.9001 16.881 22.6709 17.9824C22.4402 19.0911 21.8713 20.0992 21.043 20.8613C20.2164 21.6216 19.0909 21.9426 17.6738 22.0967C16.2647 22.2499 14.4212 22.25 12.0488 22.25H11.9512C9.57878 22.25 7.73527 22.2499 6.32617 22.0967C4.90914 21.9426 3.78355 21.6216 2.95703 20.8613C2.12867 20.0992 1.55984 19.0911 1.3291 17.9824C1.09995 16.881 1.38721 15.7341 1.96387 14.4062C2.53774 13.0849 3.45836 11.4551 4.64551 9.35449L4.69238 9.27246C5.87938 7.17208 6.80041 5.54266 7.63379 4.37402C8.46992 3.20154 9.30229 2.36651 10.3623 2.01465ZM11 11C10.4477 11 10 11.4477 10 12C10 12.5523 10.4477 13 11 13V17C11 17.5523 11.4477 18 12 18C12.5523 18 13 17.5523 13 17V12.9609C13.0001 12.7611 13.0001 12.523 12.9727 12.3184C12.9394 12.0713 12.8505 11.7294 12.5605 11.4395C12.2706 11.1495 11.9287 11.0606 11.6816 11.0273C11.477 10.9999 11.2389 10.9999 11.0391 11C11.0259 11 11.0128 11 11 11ZM11.9951 7C11.4455 7.00018 11 7.44782 11 8C11 8.55218 11.4455 8.99982 11.9951 9H12.0039C12.5537 9 13 8.55228 13 8C13 7.44772 12.5537 7 12.0039 7H11.9951Z" fill="black"/>
</svg>
