<svg width="24" height="24" viewBox="0 0 24 24" fill="none" xmlns="http://www.w3.org/2000/svg">
<path d="M21.25 3.2041H6.64453C5.56943 3.20415 4.69776 4.07915 4.69727 5.1582V5.16016C4.69782 6.23909 5.56942 7.11324 6.64453 7.11328H16.3799V6.13672H6.64355V4.18164H17.3535C17.8912 4.18164 18.3271 4.61944 18.3271 5.15918V7.11328H21.25V22.75H6.64551C4.49463 22.75 2.75105 20.9997 2.75098 18.8408L2.75 5.1582C2.7505 2.99965 4.49398 1.25004 6.64453 1.25H21.25V3.2041ZM8 16.25V17.75H12V16.25H8ZM8 13.75H16V12.25H8V13.75Z" fill="black"/>
</svg>
