<svg width="24" height="24" viewBox="0 0 24 24" fill="none" xmlns="http://www.w3.org/2000/svg">
<path d="M17.8058 14.8372C17.9221 14.9064 18.0658 14.9875 18.2285 15.0793C18.9413 15.4814 20.0188 16.0893 20.757 16.8118C21.2186 17.2637 21.6573 17.8592 21.737 18.5888C21.8218 19.3646 21.4834 20.0927 20.8044 20.7396C19.6329 21.8556 18.2271 22.75 16.4088 22.75H7.59056C5.77225 22.75 4.36646 21.8556 3.19502 20.7396C2.516 20.0927 2.17753 19.3646 2.26234 18.5888C2.34209 17.8592 2.78074 17.2637 3.24241 16.8118C3.98057 16.0893 5.05809 15.4814 5.7709 15.0793C5.93355 14.9875 6.07724 14.9064 6.19355 14.8372C9.7476 12.7209 14.2518 12.7209 17.8058 14.8372Z" fill="black"/>
<path d="M6.74969 6.5C6.74969 3.6005 9.10019 1.25 11.9997 1.25C14.8992 1.25 17.2497 3.6005 17.2497 6.5C17.2497 9.39949 14.8992 11.75 11.9997 11.75C9.10019 11.75 6.74969 9.39949 6.74969 6.5Z" fill="black"/>
</svg>
